<svg xmlns="http://www.w3.org/2000/svg" width="500" height="500" viewBox="0 0 500 500">
<g>

<path d="M 52.22 398.17 C42.96,394.87 38.68,389.13 38.68,380.00 C38.68,370.11 42.94,365.26 54.15,362.38 C62.36,360.27 74.41,361.05 80.71,364.10 C85.28,366.31 90.73,373.01 89.54,374.94 C89.18,375.52 85.71,376.00 81.84,376.00 C75.70,376.00 74.39,375.66 71.69,373.39 C69.01,371.14 67.91,370.85 63.60,371.26 C55.46,372.05 51.89,378.02 55.45,384.91 C58.13,390.08 67.52,391.55 72.00,387.50 C73.36,386.27 75.56,385.98 81.89,386.21 L 90.02 386.50 L 88.15 390.00 C86.87,392.41 84.50,394.42 80.57,396.45 C73.05,400.32 60.42,401.09 52.22,398.17 ZM 108.22 398.17 C98.95,394.86 94.68,389.12 94.68,380.00 C94.68,368.29 101.56,362.51 116.92,361.33 C130.30,360.29 140.92,364.09 144.63,371.25 C146.77,375.37 146.84,384.51 144.76,388.50 C140.88,395.93 134.41,399.18 122.51,399.68 C115.48,399.98 112.34,399.65 108.22,398.17 ZM 125.44 389.02 C128.73,387.77 131.50,382.13 130.59,378.52 C130.22,377.04 128.78,374.69 127.38,373.29 C125.16,371.07 124.23,370.82 119.73,371.25 C115.78,371.63 114.09,372.35 112.31,374.43 C105.47,382.37 115.02,392.98 125.44,389.02 ZM 221.72 398.97 C210.28,396.09 203.95,387.45 205.61,377.01 C206.55,371.18 209.71,367.04 215.50,364.07 C219.98,361.77 221.64,361.50 231.50,361.51 C241.01,361.53 243.15,361.85 247.32,363.88 C252.25,366.30 257.78,372.93 256.54,374.94 C256.18,375.53 252.69,376.00 248.76,376.00 C242.88,376.00 241.24,375.63 239.38,373.88 C236.12,370.83 229.36,370.35 225.30,372.90 C219.24,376.71 220.22,386.19 226.97,388.99 C230.59,390.49 236.51,389.75 239.00,387.50 C240.36,386.27 242.56,385.98 248.89,386.21 L 257.02 386.50 L 255.18 389.92 C254.05,392.03 251.33,394.49 248.11,396.30 C243.65,398.83 241.62,399.31 234.19,399.59 C229.41,399.78 223.80,399.50 221.72,398.97 ZM 424.72 398.97 C410.80,395.46 404.51,382.90 410.62,370.83 C416.65,358.91 448.90,357.63 456.99,368.99 C460.63,374.10 459.87,375.00 451.87,375.00 C446.34,375.00 443.96,374.52 441.30,372.88 C438.67,371.25 436.83,370.87 433.39,371.26 C428.05,371.86 425.26,374.12 424.43,378.52 C423.08,385.73 429.43,390.88 438.24,389.69 C443.13,389.04 445.75,387.00 441.70,387.00 C439.37,387.00 439.00,386.59 439.00,384.00 L 439.00 381.00 L 449.50 381.00 L 460.00 381.00 L 460.00 390.00 L 460.00 399.00 L 456.86 399.00 C455.13,399.00 453.21,398.31 452.59,397.46 C451.58,396.08 451.13,396.09 448.15,397.58 C444.21,399.54 430.26,400.37 424.72,398.97 ZM 145.62 397.75 C146.02,397.06 151.27,388.74 157.28,379.25 L 168.21 362.00 L 175.85 362.02 L 183.50 362.04 L 191.26 374.27 C195.53,381.00 200.83,389.31 203.03,392.75 L 207.05 399.00 L 199.08 399.00 C191.29,399.00 191.07,398.93 189.34,396.00 L 187.57 393.00 L 175.84 393.00 L 164.11 393.00 L 162.34 396.00 C160.61,398.93 160.38,399.00 152.73,399.00 C146.72,399.00 145.05,398.71 145.62,397.75 ZM 181.27 383.39 C181.88,382.78 176.93,373.04 176.00,373.02 C175.45,373.00 170.00,382.43 170.00,383.40 C170.00,384.19 180.48,384.18 181.27,383.39 ZM 263.00 380.50 L 263.00 362.00 L 270.96 362.00 L 278.91 362.00 L 279.21 369.25 L 279.50 376.50 L 289.00 376.50 L 298.50 376.50 L 298.79 369.25 L 299.09 362.00 L 306.79 362.00 L 314.50 362.00 L 314.50 380.50 L 314.50 399.00 L 306.75 399.00 L 299.00 399.00 L 299.00 391.50 L 299.00 384.00 L 289.00 384.00 L 279.00 384.00 L 279.00 391.50 L 279.00 399.00 L 271.00 399.00 L 263.00 399.00 L 263.00 380.50 ZM 322.00 380.50 L 322.00 362.00 L 330.00 362.00 L 338.00 362.00 L 338.00 380.50 L 338.00 399.00 L 330.00 399.00 L 322.00 399.00 L 322.00 380.50 ZM 347.00 380.50 L 347.00 362.00 L 356.76 362.00 L 366.52 362.00 L 376.51 374.06 L 386.50 386.13 L 386.78 374.06 L 387.06 362.00 L 395.03 362.00 L 403.00 362.00 L 403.00 380.50 L 403.00 399.00 L 393.58 399.00 L 384.17 399.00 L 375.14 388.17 C362.06,372.48 363.00,372.58 363.00,386.88 L 363.00 399.00 L 355.00 399.00 L 347.00 399.00 L 347.00 380.50 ZM 313.50 325.01 C301.40,322.81 293.40,320.20 281.48,314.59 C265.24,306.95 248.49,294.62 250.60,291.88 C261.92,277.24 271.34,266.00 272.31,266.00 C272.98,266.00 277.58,269.04 282.53,272.75 C297.31,283.85 310.67,289.89 325.58,292.20 L 333.00 293.36 L 333.00 310.18 L 333.00 327.00 L 328.25 326.92 C325.64,326.87 319.00,326.02 313.50,325.01 ZM 345.00 310.00 C345.00,294.72 345.17,293.00 346.69,293.00 C349.73,293.00 361.43,289.78 365.00,287.96 C369.39,285.71 375.55,279.39 376.94,275.68 C378.31,272.06 378.30,263.93 376.93,260.32 C374.41,253.67 365.00,247.96 352.87,245.74 L 345.50 244.39 L 345.23 226.08 L 344.95 207.77 L 349.73 208.45 C389.05,214.07 408.82,226.41 415.54,249.50 C417.82,257.35 417.83,271.41 415.55,280.00 C409.43,303.11 388.41,319.86 359.00,325.08 C353.23,326.10 347.71,326.95 346.75,326.97 C345.15,327.00 345.00,325.54 345.00,310.00 ZM 90.44 323.71 C90.17,323.00 90.07,315.07 90.22,306.08 L 90.50 289.74 L 163.75 289.34 L 237.00 288.94 L 237.00 306.97 L 237.00 325.00 L 163.97 325.00 C105.31,325.00 90.84,324.75 90.44,323.71 ZM 90.47 276.77 C90.20,276.07 90.10,242.65 90.24,202.50 L 90.50 129.50 L 110.76 129.23 L 131.01 128.96 L 130.76 203.23 L 130.50 277.50 L 110.73 277.77 C95.45,277.98 90.84,277.75 90.47,276.77 ZM 314.62 238.95 C289.79,234.16 279.76,229.91 270.11,220.11 C259.80,209.62 255.00,194.32 257.03,178.32 C259.49,158.84 268.97,145.76 287.28,136.58 C298.54,130.94 309.22,128.15 322.75,127.32 L 333.00 126.70 L 333.00 143.22 L 333.00 159.74 L 325.97 160.43 C312.19,161.79 302.59,165.82 297.99,172.18 C295.47,175.65 295.00,177.24 295.00,182.20 C295.00,194.90 301.92,200.34 322.36,203.73 L 333.00 205.50 L 333.00 223.75 C333.00,240.50 332.86,241.99 331.25,241.91 C330.29,241.86 322.81,240.53 314.62,238.95 ZM 385.53 178.85 C376.36,172.49 362.36,165.78 353.50,163.51 L 345.50 161.45 L 345.22 145.05 C345.07,136.03 345.30,128.31 345.72,127.89 C346.77,126.87 360.40,129.31 371.50,132.52 C376.45,133.94 385.06,137.28 390.63,139.94 C400.63,144.70 413.00,152.37 413.00,153.81 C413.00,154.22 411.31,156.82 409.25,159.60 C407.19,162.37 402.58,168.76 399.00,173.79 C395.42,178.83 392.27,182.96 392.00,182.97 C391.73,182.99 388.81,181.13 385.53,178.85 Z" fill="rgb(252,252,252)"/>
</g>
</svg>