<svg xmlns="http://www.w3.org/2000/svg" viewBox="0 0 520 260" role="img" aria-hidden="true">
  <g fill="#040404">
    <path d="M417 50c14 0 25 10 25 24s-11 24-25 24-25-10-25-24 11-24 25-24Z"/>
    <path d="M383 88c17-6 33-7 50-2 9 3 14 12 12 20l-8 39c-2 11-13 18-24 15l-14-4-20 19c-5 5-12 7-19 5l-24-6c-7-2-11-8-10-15 1-6 6-11 13-12l16-2 13-13 7-33c2-6 7-9 8-11Z"/>
    <path d="m319 149 34 8c6 2 11 6 15 11l31 41c6 9 4 22-5 28-10 7-23 5-30-4l-23-30-25-6c-10-2-16-13-14-22 3-10 11-15 17-15Z"/>
    <path d="m420 156 33 5c7 1 14 5 18 11l38 58c7 10 4 24-6 31-10 6-24 4-30-7l-31-48-24-3c-10-1-17-11-15-21 2-10 9-17 17-16Z"/>
    <path d="m355 174 24 6-39 52c-7 10-21 13-31 6-10-7-13-20-6-30l52-71Z"/>
  </g>
  <g fill="none" stroke="#060606" stroke-linecap="round" stroke-linejoin="round">
    <path d="M338 141C255 128 162 122 42 130" stroke-width="8"/>
    <path d="M337 151C246 150 150 157 20 172" stroke-width="4.5" opacity=".92"/>
  </g>
</svg>
