<svg xmlns="http://www.w3.org/2000/svg" viewBox="0 0 520 260" role="img" aria-hidden="true">
  <defs>
    <linearGradient id="silhouetteFade" x1="1" y1="0.5" x2="0" y2="0.5">
      <stop offset="0" stop-color="#2b2b2b" stop-opacity="0.46"/>
      <stop offset="0.48" stop-color="#1a1a1a" stop-opacity="0.22"/>
      <stop offset="1" stop-color="#0a0a0a" stop-opacity="0"/>
    </linearGradient>
    <linearGradient id="ropeFade" x1="1" y1="0" x2="0" y2="0">
      <stop offset="0" stop-color="#e7ecef" stop-opacity="0.3"/>
      <stop offset="0.55" stop-color="#d7e0e5" stop-opacity="0.12"/>
      <stop offset="1" stop-color="#d7e0e5" stop-opacity="0"/>
    </linearGradient>
  </defs>

  <g fill="url(#silhouetteFade)">
    <path d="M418 72c10 0 18 8 18 18s-8 18-18 18-18-8-18-18 8-18 18-18Z"/>
    <path d="M395 103c12-4 24-5 37-2 7 2 11 9 9 15l-6 29c-2 8-9 13-17 11l-10-3-15 14c-4 4-9 5-14 4l-16-4c-5-1-8-6-7-11 1-4 4-8 9-8l12-2 9-10 6-24c1-4 5-7 6-9Z"/>
    <path d="m352 149 24 6c5 1 9 4 12 8l20 26c5 7 3 15-3 20-7 5-16 3-21-3l-14-19-18-4c-7-2-11-9-9-15 2-7 8-10 12-9Z"/>
    <path d="m374 170 14 4-23 31c-5 7-14 9-20 4-6-4-8-13-4-20l33-45Z"/>
  </g>

  <g fill="none" stroke="url(#ropeFade)" stroke-linecap="round" stroke-linejoin="round">
    <path d="M341 139C300 131 248 127 178 131" stroke-width="3.2"/>
    <path d="M342 149C294 148 239 153 154 166" stroke-width="2"/>
  </g>
</svg>
