<svg xmlns="http://www.w3.org/2000/svg" viewBox="0 0 320 320" fill="none">
  <rect x="100" y="86" width="120" height="148" fill="#c9ccd1" opacity=".42"/>
  <g stroke="#1f4dff" stroke-width="2" stroke-linecap="round">
    <path d="M44 158h232"/>
    <path d="M62 148v20M258 148v20"/>
    <path d="M150 54h30"/>
    <path d="M144 62h42"/>
    <path d="M138 70h50"/>
    <path d="M132 78h56"/>
    <path d="M124 86h66"/>
    <path d="M116 94h76"/>
    <path d="M112 102h84"/>
    <path d="M108 110h96"/>
    <path d="M104 118h106"/>
    <path d="M110 126h102"/>
    <path d="M118 134h96"/>
    <path d="M126 142h90"/>
    <path d="M134 150h84"/>
    <path d="M142 168h74"/>
    <path d="M148 178h70"/>
    <path d="M150 188h74"/>
    <path d="M146 198h84"/>
    <path d="M140 208h90"/>
    <path d="M132 218h94"/>
    <path d="M122 228h94"/>
    <path d="M114 238h88"/>
    <path d="M124 248h72"/>
    <path d="M136 258h54"/>
    <path d="M68 230h34M224 232h34"/>
    <path d="M58 244h40M232 246h42"/>
  </g>
</svg>
