<svg width="1200" height="760" viewBox="0 0 1200 760" fill="none" xmlns="http://www.w3.org/2000/svg" role="img" aria-labelledby="title desc">
<title id="title">Allenamento - Esperienza e disponibilità</title>
<desc id="desc">Illustrazione generata per la sezione allenamento del questionario.</desc>
<defs>
  <linearGradient id="bg" x1="0" y1="0" x2="1200" y2="760" gradientUnits="userSpaceOnUse">
    <stop stop-color="#07111F"/><stop offset="0.52" stop-color="#0F2230"/><stop offset="1" stop-color="#102A31"/>
  </linearGradient>
  <radialGradient id="glow1" cx="0" cy="0" r="1" gradientUnits="userSpaceOnUse" gradientTransform="translate(250 135) rotate(49) scale(520 350)">
    <stop stop-color="#60a5fa" stop-opacity="0.55"/><stop offset="1" stop-color="#60a5fa" stop-opacity="0"/>
  </radialGradient>
  <radialGradient id="glow2" cx="0" cy="0" r="1" gradientUnits="userSpaceOnUse" gradientTransform="translate(960 600) rotate(49) scale(520 330)">
    <stop stop-color="#19dad5" stop-opacity="0.42"/><stop offset="1" stop-color="#19dad5" stop-opacity="0"/>
  </radialGradient>
  <filter id="shadow" x="-20%" y="-20%" width="140%" height="150%"><feDropShadow dx="0" dy="24" stdDeviation="28" flood-color="#000" flood-opacity="0.35"/></filter>
</defs>
<rect width="1200" height="760" rx="64" fill="url(#bg)"/>
<rect width="1200" height="760" rx="64" fill="url(#glow1)"/>
<rect width="1200" height="760" rx="64" fill="url(#glow2)"/>
<path d="M76 608C218 532 318 648 460 570C606 490 690 396 848 432C978 462 1052 380 1128 310" stroke="white" stroke-opacity="0.10" stroke-width="3" stroke-linecap="round"/>
<circle cx="1010" cy="132" r="78" fill="#60a5fa" fill-opacity="0.13"/>
<circle cx="1026" cy="132" r="42" fill="white" fill-opacity="0.10"/>
<rect x="118" y="108" width="964" height="544" rx="44" fill="white" fill-opacity="0.10" stroke="white" stroke-opacity="0.20"/>
<rect x="160" y="154" width="420" height="452" rx="34" fill="white" fill-opacity="0.94" filter="url(#shadow)"/>
<rect x="198" y="202" width="246" height="22" rx="11" fill="#0F172A" fill-opacity="0.92"/>
<rect x="198" y="246" width="322" height="16" rx="8" fill="#CBD5E1"/>
<rect x="198" y="282" width="268" height="16" rx="8" fill="#E2E8F0"/>
<rect x="198" y="340" width="318" height="72" rx="22" fill="#60a5fa" fill-opacity="0.16" stroke="#60a5fa" stroke-opacity="0.58"/>
<circle cx="236" cy="376" r="15" fill="#60a5fa"/><circle cx="236" cy="376" r="6" fill="white"/>
<rect x="270" y="360" width="188" height="14" rx="7" fill="#0F172A" fill-opacity="0.82"/>
<rect x="270" y="384" width="136" height="12" rx="6" fill="#64748B" fill-opacity="0.62"/>
<rect x="198" y="430" width="318" height="72" rx="22" fill="#F8FAFC" stroke="#E2E8F0"/>
<circle cx="236" cy="466" r="15" fill="#E2E8F0"/>
<rect x="270" y="450" width="202" height="14" rx="7" fill="#334155" fill-opacity="0.70"/>
<rect x="270" y="474" width="118" height="12" rx="6" fill="#94A3B8" fill-opacity="0.75"/>
<rect x="650" y="168" width="356" height="356" rx="54" fill="white" fill-opacity="0.13" stroke="white" stroke-opacity="0.22" filter="url(#shadow)"/>
<path d="M724 392H932" stroke="white" stroke-width="22" stroke-linecap="round"/>
<rect x="680" y="330" width="40" height="124" rx="14" fill="#60a5fa"/><rect x="936" y="330" width="40" height="124" rx="14" fill="#60a5fa"/>
<rect x="636" y="354" width="36" height="76" rx="12" fill="white" fill-opacity="0.78"/><rect x="984" y="354" width="36" height="76" rx="12" fill="white" fill-opacity="0.78"/>
<path d="M714 480C748 520 914 520 948 480" stroke="#19dad5" stroke-width="14" stroke-linecap="round"/>
<rect x="650" y="552" width="356" height="54" rx="27" fill="white" fill-opacity="0.14" stroke="white" stroke-opacity="0.16"/>
<text x="828" y="587" fill="white" font-family="Inter, Arial, sans-serif" font-size="24" font-weight="800" text-anchor="middle">Progressioni chiare</text>
</svg>