<svg xmlns="http://www.w3.org/2000/svg" viewBox="0 0 720 520" role="img" aria-label="Monitoraggio andamento e feedback">
  <defs>
    <linearGradient id="bg4" x1="0" y1="0" x2="1" y2="1">
      <stop offset="0" stop-color="#101d32"/>
      <stop offset="1" stop-color="#11253f"/>
    </linearGradient>
    <style>
      .graph{stroke-dasharray:340;stroke-dashoffset:340;animation:graph 3s ease-in-out infinite}
      .face{animation:face 3.2s ease-in-out infinite}
      @keyframes graph{0%,15%{stroke-dashoffset:340}45%,100%{stroke-dashoffset:0}}
      @keyframes face{0%,100%{transform:translateY(0)}50%{transform:translateY(-6px)}}
    </style>
  </defs>
  <rect width="720" height="520" rx="34" fill="url(#bg4)"/>
  <rect x="82" y="126" width="320" height="214" rx="26" fill="#eef2ff"/>
  <path class="graph" d="M128 294l62-76 54 46 78-92" stroke="#7d8ec5" stroke-width="12" fill="none" stroke-linecap="round" stroke-linejoin="round"/>
  <circle cx="190" cy="218" r="10" fill="#cde15e"/>
  <circle cx="244" cy="264" r="10" fill="#cde15e"/>
  <circle cx="324" cy="172" r="10" fill="#cde15e"/>
  <g class="face" transform-origin="520px 242px">
    <circle cx="520" cy="242" r="124" fill="#b9c4ff"/>
    <ellipse cx="520" cy="228" rx="58" ry="62" fill="#ffdcbf"/>
    <path d="M468 218c18-46 77-57 119-21 14 12 22 27 22 44-38-15-90-23-141-23z" fill="#221c1a"/>
    <path d="M490 286c18 14 44 14 62 0" stroke="#312827" stroke-width="6" stroke-linecap="round" fill="none"/>
  </g>
</svg>
